<?xml version="1.0" standalone="no"?><!DOCTYPE svg PUBLIC "-//W3C//DTD SVG 1.1//EN" "http://www.w3.org/Graphics/SVG/1.1/DTD/svg11.dtd"><svg t="1492820119121" class="icon" style="" viewBox="0 0 1024 1024" version="1.1" xmlns="http://www.w3.org/2000/svg" p-id="2045" xmlns:xlink="http://www.w3.org/1999/xlink" width="32" height="32"><defs><style type="text/css"></style></defs><path d="M895.528512 512.234337c0 18.531052-15.023158 33.55421-33.55421 33.55421L161.454694 545.788547c-18.531052 0-33.55421-15.023158-33.55421-33.55421l0 0c0-18.531052 15.023158-33.55421 33.55421-33.55421l700.519608 0C880.506377 478.680127 895.528512 493.703285 895.528512 512.234337L895.528512 512.234337z" p-id="2046"></path><path d="M511.715009 896.048863c-18.531052 0-33.55421-15.023158-33.55421-33.55421L478.160799 161.974022c0-18.531052 15.023158-33.55421 33.55421-33.55421l0 0c18.531052 0 33.55421 15.023158 33.55421 33.55421l0 700.519608C545.269219 881.025705 530.246061 896.048863 511.715009 896.048863L511.715009 896.048863z" p-id="2047"></path></svg>