<?xml version="1.0" standalone="no"?><!DOCTYPE svg PUBLIC "-//W3C//DTD SVG 1.1//EN" "http://www.w3.org/Graphics/SVG/1.1/DTD/svg11.dtd"><svg t="1492821585033" class="icon" style="" viewBox="0 0 1024 1024" version="1.1" xmlns="http://www.w3.org/2000/svg" p-id="2885" xmlns:xlink="http://www.w3.org/1999/xlink" width="32" height="32"><defs><style type="text/css"></style></defs><path d="M450.289 512l-339.798 339.798c-16.545 16.545-16.655 44.284 0.386 61.325 16.543 16.543 44.498 17.214 61.325 0.386l339.798-339.798 339.798 339.798c16.545 16.545 44.284 16.655 61.325-0.386 16.543-16.543 17.214-44.498 0.386-61.325l-339.798-339.798 339.798-339.798c16.545-16.545 16.655-44.284-0.386-61.325-16.543-16.543-44.498-17.214-61.325-0.386l-339.798 339.798-339.798-339.798c-16.545-16.545-44.284-16.655-61.325 0.386-16.543 16.543-17.214 44.498-0.386 61.325l339.798 339.798z" p-id="2886" fill="#ffffff"></path></svg>