<?xml version="1.0" standalone="no"?><!DOCTYPE svg PUBLIC "-//W3C//DTD SVG 1.1//EN" "http://www.w3.org/Graphics/SVG/1.1/DTD/svg11.dtd"><svg t="1492947895039" class="icon" style="" viewBox="0 0 1024 1024" version="1.1" xmlns="http://www.w3.org/2000/svg" p-id="8200" xmlns:xlink="http://www.w3.org/1999/xlink" width="24" height="24"><defs><style type="text/css"></style></defs><path d="M576 128 576 64 384 64 384 128 128 128 128 256 832 256 832 128 576 128 576 128ZM192 832C192 902.4 249.6 960 320 960L640 960C710.4 960 768 902.4 768 832L768 320 192 320 192 832 192 832ZM576 384 640 384 640 832 576 832 576 384 576 384ZM448 384 512 384 512 832 448 832 448 384 448 384ZM320 384 384 384 384 832 320 832 320 384 320 384Z" p-id="8201" fill="#94B6D1"></path></svg>