<?xml version="1.0" standalone="no"?><!DOCTYPE svg PUBLIC "-//W3C//DTD SVG 1.1//EN" "http://www.w3.org/Graphics/SVG/1.1/DTD/svg11.dtd"><svg t="1492748936705" class="icon" style="" viewBox="0 0 1024 1024" version="1.1" xmlns="http://www.w3.org/2000/svg" p-id="5648" xmlns:xlink="http://www.w3.org/1999/xlink" width="32" height="32"><defs><style type="text/css"></style></defs><path d="M509.881379 0C228.281379 0 0 228.281379 0 509.881379s228.281379 509.881379 509.881379 509.881379 509.881379-228.281379 509.881379-509.881379S791.481379 0 509.881379 0zM509.881379 978.97931c-259.001379 0-469.097931-210.096552-469.097931-469.097931S250.703448 40.783448 509.881379 40.783448s469.097931 210.096552 469.097931 469.097931S768.882759 978.97931 509.881379 978.97931z" p-id="5649" fill="#ffffff"></path><path d="M806.488276 498.405517c1.412414-4.06069 1.942069-7.944828 1.942069-11.652414 0-11.29931-5.12-21.53931-14.124138-28.424828 0.176552 0.176552-3.531034-2.824828-3.531034-2.824828l-5.296552-4.06069-0.176552 0c-0.176552-0.176552-0.529655-0.353103-0.706207-0.529655 0 0-34.604138-26.482759-50.14069-38.488276l0-113.875862c0-19.773793-16.066207-35.84-35.84-35.84l-51.2 0c-19.773793 0-35.84 16.066207-35.84 35.84l0 19.773793-80.154483-61.44c-12.888276-9.710345-30.72-9.710345-43.431724 0 0 0-253.351724 194.206897-253.351724 194.206897l-9.533793 7.415172c-12.358621 9.357241-17.302069 25.423448-12.182069 40.077241 5.12 14.653793 18.891034 24.364138 34.251034 24.011034l37.782069-0.706207 0 213.274483c0 19.597241 16.066207 35.84 35.663448 35.84L429.02069 771.001379c19.773793 0 35.84-16.066207 35.84-35.84 0 0-0.176552-42.725517-0.176552-43.608276l0.176552 0 0-0.176552 0 0c0-64.794483 34.251034-65.147586 45.373793-65.147586 36.546207 0.353103 44.314483 34.957241 44.491034 64.264828 0 0.176552 0 0.529655 0 0.706207 0 0.176552 0 0.529655 0 0.529655l0 0 0 0c0 0 0.176552 2.471724 0.176552 3.001379l1.942069-1.588966-1.412414-1.412414 2.824828 0.176552 0.176552-0.176552 33.191724 2.295172 0.176552 0.176552 0.706207 0-0.529655 0 0.706207 0.706207c0-0.353103 0-0.706207 0-0.706207l0.353103 0c0 0.176552-0.176552 0.529655-0.353103 0.882759l0 0-37.605517-33.191724c0-0.882759 0 64.264828 0 64.264828l0 9.18069c0 19.597241 16.066207 35.663448 35.663448 35.663448l108.226207 0c19.597241 0 35.663448-16.066207 35.663448-35.84L734.631724 521.886897c9.357241 0.176552 37.782069 0.706207 37.782069 0.706207C787.773793 522.769655 801.544828 513.05931 806.488276 498.405517zM426.902069 692.612414 426.902069 692.612414 426.902069 692.612414 426.902069 692.612414zM592.684138 694.201379 592.684138 694.201379 592.684138 694.201379 592.684138 694.201379zM593.037241 691.729655l0.176552-18.537931c0-0.176552-0.706207-0.353103-1.765517-0.529655-6.17931-53.142069-36.016552-84.038621-81.037241-84.568276-46.962759 0.529655-76.8 31.602759-82.449655 83.862069l-1.235862 19.597241c0 2.295172 0.176552 4.237241 0.529655 6.17931l-0.353103 28.424828c0 0 0 4.06069 0 6.708966l-103.635862 0 0-211.862069c0.882759 0 1.588966-0.176552 1.588966-0.176552l-1.588966-9.18069 0-9.004138 0-19.42069c0 0-1.05931 0-2.471724 0l0 0-0.706207 0c-5.473103 0.176552-16.242759 0.353103-16.242759 0.353103l-16.242759 0.353103c0 0-21.715862 0.353103-33.544828 0.529655 2.118621-1.588966 3.884138-3.001379 3.884138-3.001379l251.93931-192.971034c12.182069 9.357241 109.462069 83.862069 109.462069 83.862069l30.543448 23.481379c-0.176552-0.176552-0.176552-38.664828-0.176552-38.664828l0-55.966897 46.609655 0 0 120.937931 0 9.533793 7.591724 5.649655c0 0 57.555862 44.137931 57.555862 44.137931 1.765517 1.235862 3.001379 2.295172 4.237241 3.177931l-33.721379-0.529655c0 0-16.242759-0.353103-16.242759-0.353103l-19.597241-0.353103c0-0.176552 0.176552 19.42069 0.176552 19.42069l0 7.238621c0-0.353103 0 200.562759 0 222.984828l-103.635862 0c0-2.648276 0-6.885517 0-6.885517 0 0 0-22.422069 0-22.422069C592.86069 703.028966 593.037241 694.024828 593.037241 691.729655z" p-id="5650" fill="#ffffff"></path></svg>